<?xml version="1.0" encoding="UTF-8"?>
<svg width="25px" height="25px" viewBox="0 0 25 25" version="1.1" xmlns="http://www.w3.org/2000/svg" xmlns:xlink="http://www.w3.org/1999/xlink">
    <!-- Generator: Sketch 50 (54983) - http://www.bohemiancoding.com/sketch -->
    <title>account-circled</title>
    <desc>Created with Sketch.</desc>
    <defs></defs>
    <g id="Page-1" stroke="none" stroke-width="1" fill="none" fill-rule="evenodd">
        <g id="account-circled">
            <circle id="circle" fill="#11BF96" cx="12.5" cy="12.5" r="12.5"></circle>
            <g id="account" transform="translate(5.370547, 5.278229)" fill="#FFFFFF" fill-rule="nonzero">
                <path d="M2,-8.8817842e-16 L12,-8.8817842e-16 C13.1045695,-1.09108455e-15 14,0.8954305 14,2 L14,12 C14,13.1045695 13.1045695,14 12,14 L2,14 C0.8954305,14 -1.14110487e-14,13.1045695 -1.15463195e-14,12 L-1.15463195e-14,2 C-1.16815902e-14,0.8954305 0.8954305,-6.85272294e-16 2,-8.8817842e-16 Z M9.890625,10.1625 L7.875,4.4125 L9.8875,1.70625 L4.109375,1.70625 L6.125,4.4125 L4.109375,10.1625 L7,12.934375 L9.890625,10.1625 Z" id="account-black-tie"></path>
            </g>
        </g>
    </g>
</svg>