<?xml version="1.0" encoding="UTF-8"?>
<svg width="25px" height="25px" viewBox="0 0 25 25" version="1.1" xmlns="http://www.w3.org/2000/svg" xmlns:xlink="http://www.w3.org/1999/xlink">
    <!-- Generator: Sketch 50 (54983) - http://www.bohemiancoding.com/sketch -->
    <title>asset-circled</title>
    <desc>Created with Sketch.</desc>
    <defs></defs>
    <g id="Page-1" stroke="none" stroke-width="1" fill="none" fill-rule="evenodd">
        <g id="asset-circled">
            <circle id="circle" fill="#11BF96" cx="12.5" cy="12.5" r="12.5"></circle>
            <g id="asset" transform="translate(4.443276, 4.699718)" fill="#FFFFFF" fill-rule="nonzero">
                <path d="M15.2411987,5.35339378 C15.0675866,5.15808288 14.7861961,5.15808288 14.612584,5.35339378 L14.2984155,5.7068284 L13.4956331,4.80371077 C13.6520229,4.13777871 13.5056332,3.40059723 13.0414638,2.87841399 L11.7845122,1.46436304 C10.0489466,-0.488121014 5.49346391,-0.488121014 3.7576206,1.46436304 C3.40544402,2.14244562 3.33381452,2.52078065 3.5427321,2.59936814 C3.97591109,2.76231493 5.35586362,1.8765309 6.44407911,2.00101799 C6.76775312,2.03804488 7.29076061,2.33051022 8.0131016,2.87841399 L8.0131016,3.46434671 C8.0131016,3.99465488 8.20032489,4.50340072 8.53393792,4.87839766 L9.89894577,6.41401012 C10.3631151,6.93619336 11.0183967,7.10087951 11.6103445,6.92494345 L12.4131269,7.82806107 L12.0989584,8.18149569 C11.9253463,8.37680659 11.6109001,9.08877128 11.7845122,9.28408218 L12.4131269,9.972521 C12.586739,10.1678319 13.0979326,10.1678319 13.2715447,9.972521 L15.870369,6.76744473 C16.0434255,6.57244633 16.0434255,6.25588641 15.8698134,6.06057551 L15.2411987,5.35339378 Z M7.9053232,5.58557939 C7.80254483,5.46995533 7.71532211,5.34214387 7.63171051,5.21214493 L0.545558656,12.6548967 C-0.164723206,13.4011406 -0.183889983,14.6608178 0.503058411,15.4339365 C1.19000681,16.2070551 2.31001325,16.1854928 2.97335039,15.3861243 L9.58811065,7.41525194 C9.47811002,7.32431519 9.36866495,7.23181594 9.27033105,7.12119184 L7.9053232,5.58557939 Z"></path>
            </g>
        </g>
    </g>
</svg>