<?xml version="1.0" encoding="UTF-8"?>
<svg width="25px" height="25px" viewBox="0 0 25 25" version="1.1" xmlns="http://www.w3.org/2000/svg" xmlns:xlink="http://www.w3.org/1999/xlink">
    <!-- Generator: Sketch 50 (54983) - http://www.bohemiancoding.com/sketch -->
    <title>attach-circled</title>
    <desc>Created with Sketch.</desc>
    <defs></defs>
    <g id="Page-1" stroke="none" stroke-width="1" fill="none" fill-rule="evenodd">
        <g id="attach-circled">
            <circle id="circle" fill="#11BF96" cx="12.5" cy="12.5" r="12.5"></circle>
            <g id="attach" transform="translate(4.835633, 3.375754)" fill="#FFFFFF" fill-rule="nonzero">
                <path d="M1.4443212,15.7961822 C-0.493507106,13.7807044 -0.45739047,10.5305462 1.49028783,8.52238967 L8.44696874,1.34955656 C9.91670687,-0.165904637 12.3057444,-0.166038358 13.7756152,1.34955656 C15.231225,2.8503753 15.2329828,5.27189723 13.7756152,6.77448777 L7.71143637,13.0210014 C6.72129665,14.0418617 5.10357648,14.0276204 4.13021823,12.987638 C3.19247913,11.9857327 3.22255974,10.3976943 4.17837374,9.41216985 L8.94560383,4.50343551 C9.15062958,4.29235676 9.48659057,4.28874629 9.6959941,4.49537881 L10.4541781,5.24351492 C10.6636148,5.45018088 10.6671635,5.78882956 10.4621709,5.99990831 L5.69543827,10.9081746 C5.53186871,11.0768304 5.52178656,11.3570764 5.67394738,11.5196812 C5.81894456,11.6745971 6.04688729,11.6771712 6.19423919,11.5251972 L12.258418,5.278717 C12.9088823,4.60803884 12.9088823,3.51610578 12.2580532,2.84505989 C11.6216509,2.18892389 10.6012315,2.18858959 9.9645639,2.84505989 L3.00784983,10.0178596 C1.85493651,11.2066401 1.83716009,13.1308867 2.96835037,14.3073984 C4.09629048,15.480567 5.91953387,15.4820379 7.04956337,14.3169594 L12.7559255,8.43326455 C12.9607854,8.22201865 13.2967464,8.2182076 13.5063157,8.4247064 L14.2650304,9.17234106 C14.4745998,9.37883986 14.4784137,9.71748854 14.2735206,9.92873445 L8.56715853,15.8123959 C6.59132319,17.8495699 3.39531599,17.8254333 1.4443212,15.7961822 Z"></path>
            </g>
        </g>
    </g>
</svg>