<?xml version="1.0" encoding="UTF-8"?>
<svg width="25px" height="25px" viewBox="0 0 25 25" version="1.1" xmlns="http://www.w3.org/2000/svg" xmlns:xlink="http://www.w3.org/1999/xlink">
    <!-- Generator: Sketch 50 (54983) - http://www.bohemiancoding.com/sketch -->
    <title>building-circled</title>
    <desc>Created with Sketch.</desc>
    <defs></defs>
    <g id="Page-1" stroke="none" stroke-width="1" fill="none" fill-rule="evenodd">
        <g id="building-circled">
            <circle id="circle" fill="#11BF96" cx="12.5" cy="12.5" r="12.5"></circle>
            <g id="building" transform="translate(3.352557, 5.547943)" fill="#FFFFFF" fill-rule="nonzero">
                <path d="M15.2515407,8.76778733 L15.2515407,13.2494136 C15.2515407,13.6653636 14.9171315,14 14.5014639,14 L10.8760926,14 C10.6698214,14 10.5010541,13.8311181 10.5010541,13.6247068 L10.5010541,10.1219703 C10.5010541,9.91555903 10.3322869,9.74667709 10.1260157,9.74667709 L7.87578525,9.74667709 C7.66951412,9.74667709 7.50074683,9.91555903 7.50074683,10.1219703 L7.50074683,13.6247068 C7.50074683,13.8311181 7.33197955,14 7.12570842,14 L3.50033709,14 C3.08466951,14 2.75026026,13.6653636 2.75026026,13.2494136 L2.75026026,8.76778733 C2.75026026,8.65519937 2.80026538,8.5488663 2.88777434,8.47693511 L8.76337616,3.63565285 C8.90089025,3.52306489 9.10091073,3.52306489 9.24155014,3.63565285 L15.117152,8.47693511 C15.2015356,8.5488663 15.2515407,8.65519937 15.2515407,8.76778733 Z M15.2515407,4.70836591 L15.2515407,0.376856919 C15.2515407,0.170445661 15.0827734,0.00156372166 14.8765023,0.00156372166 L13.126323,0.00156372166 C12.9200519,0.00156372166 12.7512846,0.170445661 12.7512846,0.376856919 L12.7512846,2.64738077 L9.95412313,0.342455043 C9.40094147,-0.114151681 8.60085952,-0.114151681 8.04767786,0.342455043 L0.137492641,6.86317435 C-0.0218986853,6.99452697 -0.0437759261,7.23221267 0.0874875188,7.39171228 L0.884444148,8.3612197 C1.01570759,8.52071931 1.25323192,8.54261142 1.41262325,8.4112588 L8.76337616,2.35340109 C8.90089025,2.24081314 9.10091073,2.24081314 9.24155014,2.35340109 L16.5923031,8.4112588 C16.7516944,8.54261142 16.9892187,8.52071931 17.1204822,8.3612197 L17.9174388,7.39171228 C18.0487022,7.22908522 18.0236997,6.99452697 17.8643083,6.86317435 L15.2515407,4.70836591 Z"></path>
            </g>
        </g>
    </g>
</svg>