<?xml version="1.0" encoding="UTF-8"?>
<svg width="25px" height="25px" viewBox="0 0 25 25" version="1.1" xmlns="http://www.w3.org/2000/svg" xmlns:xlink="http://www.w3.org/1999/xlink">
    <!-- Generator: Sketch 50 (54983) - http://www.bohemiancoding.com/sketch -->
    <title>camera-circled</title>
    <desc>Created with Sketch.</desc>
    <defs></defs>
    <g id="Page-1" stroke="none" stroke-width="1" fill="none" fill-rule="evenodd">
        <g id="camera-circled">
            <circle id="Path" fill="#11BF96" cx="12.5" cy="12.5" r="12.5"></circle>
            <path d="M8.97491361,7.82312239 L9.7025327,6.30859466 C9.86902203,5.96204973 10.2194424,5.74163806 10.6039058,5.74163806 L14.3459215,5.74163806 C14.7303848,5.74163806 15.0808052,5.96204973 15.2472945,6.30859466 L15.9749136,7.82312239 L17.8021578,7.82312239 C18.5567914,7.82312239 19.2837064,8.10752198 19.8379846,8.61962308 L19.9910331,8.76102553 L19.9910331,18.3032408 L18.9758834,19.2583619 L5.98997607,19.2583619 L5.00896692,18.3032408 L5.00896692,8.76102553 L5.12018311,8.65469623 C5.67842753,8.12098134 6.42100096,7.82312239 7.19332758,7.82312239 L8.97491361,7.82312239 Z M12.5,17.22281 C14.5560512,17.22281 16.22281,15.5560512 16.22281,13.5 C16.22281,11.4439488 14.5560512,9.77718995 12.5,9.77718995 C10.4439488,9.77718995 8.77718995,11.4439488 8.77718995,13.5 C8.77718995,15.5560512 10.4439488,17.22281 12.5,17.22281 Z M12.5,15.8267563 C11.214968,15.8267563 10.1732437,14.785032 10.1732437,13.5 C10.1732437,12.214968 11.214968,11.1732437 12.5,11.1732437 C13.785032,11.1732437 14.8267563,12.214968 14.8267563,13.5 C14.8267563,14.785032 13.785032,15.8267563 12.5,15.8267563 Z" id="camera" fill="#FFFFFF"></path>
        </g>
    </g>
</svg>