<?xml version="1.0" encoding="UTF-8"?>
<svg width="26px" height="26px" viewBox="0 0 26 26" version="1.1" xmlns="http://www.w3.org/2000/svg" xmlns:xlink="http://www.w3.org/1999/xlink">
    <!-- Generator: Sketch 50 (54983) - http://www.bohemiancoding.com/sketch -->
    <title>check-in-circled</title>
    <desc>Created with Sketch.</desc>
    <defs></defs>
    <g id="Page-1" stroke="none" stroke-width="1" fill="none" fill-rule="evenodd">
        <g id="check-in-circled" transform="translate(0.500000, 0.449902)">
            <circle id="Oval---3" fill="#11BF96" cx="12.5" cy="12.5" r="12.5"></circle>
            <path d="M9.00563544,3.63106101 L15.1577653,3.63106101 C16.8146195,3.63106101 18.1577653,4.97420676 18.1577653,6.63106101 L18.1577653,18.368939 C18.1577653,20.0257932 16.8146195,21.368939 15.1577653,21.368939 L9.00484728,21.368939 C7.81046934,21.368939 6.84223471,20.4007044 6.84223471,19.2063264 L6.84223471,17.9343886 C6.84223471,17.4424825 7.24100338,17.0437139 7.73290947,17.0437139 L7.73290947,17.0437139 C8.22481555,17.0437139 8.62358422,17.4424825 8.62358422,17.9343886 L8.62358422,18.3322246 C8.62358422,19.0438495 9.20047013,19.6207354 9.91209497,19.6207354 L13.6040707,19.6207354 C15.260925,19.6207354 16.6040707,18.2775896 16.6040707,16.6207354 L16.6040707,8.10135793 C16.6040707,6.44450368 15.260925,5.10135793 13.6040707,5.10135793 L10.0518365,5.10135793 C9.26303454,5.10135793 8.62358422,5.74080825 8.62358422,6.5296102 L8.62358422,7.06718771 C8.62358422,7.5590938 8.22481555,7.95786247 7.73290947,7.95786247 L7.73290947,7.95786247 C7.24100338,7.95786247 6.84223471,7.5590938 6.84223471,7.06718771 L6.84223471,5.79446174 C6.84223471,4.59964851 7.81082221,3.63106101 9.00563544,3.63106101 Z" id="Rectangle" fill="#FFFFFF"></path>
            <path d="M1.25871075,11.5094714 L8.55467111,11.5094714 L8.395918,9.18291484 C8.37711907,8.9074131 8.58521782,8.66883527 8.86071957,8.65003634 C8.99971583,8.6405519 9.1363662,8.68949048 9.23774,8.78505861 L12.7687393,12.113838 C12.9696703,12.3032617 12.9789988,12.6197067 12.7895751,12.8206377 C12.7835331,12.8270468 12.7773227,12.8332951 12.7709506,12.8393761 L9.23596821,16.2128443 C9.03619558,16.4034893 8.71969957,16.3960899 8.5290546,16.1963172 C8.43255487,16.0951973 8.38278812,15.9583006 8.39181982,15.8188163 L8.55467111,13.303765 L1.25871075,13.303765 C0.982568374,13.303765 0.758710749,13.0799073 0.758710749,12.803765 L0.758710749,12.0094714 C0.758710749,11.733329 0.982568374,11.5094714 1.25871075,11.5094714 Z" id="Path" fill="#FFFFFF"></path>
        </g>
    </g>
</svg>