<?xml version="1.0" encoding="UTF-8"?>
<svg width="25px" height="25px" viewBox="0 0 25 25" version="1.1" xmlns="http://www.w3.org/2000/svg" xmlns:xlink="http://www.w3.org/1999/xlink">
    <!-- Generator: Sketch 50 (54983) - http://www.bohemiancoding.com/sketch -->
    <title>check-out-circled</title>
    <desc>Created with Sketch.</desc>
    <defs></defs>
    <g id="Page-1" stroke="none" stroke-width="1" fill="none" fill-rule="evenodd">
        <g id="check-out-circled">
            <circle id="Oval---3" fill="#11BF96" cx="12.5" cy="12.5" r="12.5"></circle>
            <path d="M9.00563544,3.68018961 L15.1577653,3.68018961 C16.8146195,3.68018961 18.1577653,5.02333536 18.1577653,6.68018961 L18.1577653,18.4180676 C18.1577653,20.0749218 16.8146195,21.4180676 15.1577653,21.4180676 L9.00484728,21.4180676 C7.81046934,21.4180676 6.84223471,20.449833 6.84223471,19.255455 L6.84223471,17.9835172 C6.84223471,17.4916111 7.24100338,17.0928425 7.73290947,17.0928425 L7.73290947,17.0928425 C8.22481555,17.0928425 8.62358422,17.4916111 8.62358422,17.9835172 L8.62358422,18.4946181 C8.62358422,19.2687974 9.25118054,19.8963937 10.0253598,19.8963937 L13.6040707,19.8963937 C15.260925,19.8963937 16.6040707,18.5532479 16.6040707,16.8963937 L16.6040707,8.15048652 C16.6040707,6.49363227 15.260925,5.15048652 13.6040707,5.15048652 L10.0518365,5.15048652 C9.26303454,5.15048652 8.62358422,5.78993685 8.62358422,6.57873879 L8.62358422,7.11631631 C8.62358422,7.60822239 8.22481555,8.00699106 7.73290947,8.00699106 L7.73290947,8.00699106 C7.24100338,8.00699106 6.84223471,7.60822239 6.84223471,7.11631631 L6.84223471,5.84359034 C6.84223471,4.64877711 7.81082221,3.68018961 9.00563544,3.68018961 Z" id="Rectangle" fill="#FFFFFF" transform="translate(12.500000, 12.549129) scale(-1, 1) translate(-12.500000, -12.549129) "></path>
            <path d="M10,11.3982069 L18.5539112,11.3982069 L18.3555214,8.49076701 C18.3367224,8.21526527 18.5448212,7.97668744 18.8203229,7.95788851 C18.9593192,7.94840407 19.0959696,7.99734265 19.1973434,8.09291078 L23.5098512,12.1584417 C23.7107822,12.3478655 23.7201107,12.6643105 23.530687,12.8652415 C23.5246449,12.8716506 23.5184346,12.8778989 23.5120625,12.8839799 L19.1955716,17.0032493 C18.9957989,17.1938943 18.6793029,17.1864949 18.488658,16.9867223 C18.3921582,16.8856023 18.3423915,16.7487056 18.3514232,16.6092213 L18.5539112,13.4820265 L10,13.4820265 C9.72385763,13.4820265 9.5,13.2581689 9.5,12.9820265 L9.5,11.8982069 C9.5,11.6220645 9.72385763,11.3982069 10,11.3982069 Z" id="Path" fill="#FFFFFF"></path>
        </g>
    </g>
</svg>