<?xml version="1.0" encoding="UTF-8"?>
<svg width="15px" height="16px" viewBox="0 0 15 16" version="1.1" xmlns="http://www.w3.org/2000/svg" xmlns:xlink="http://www.w3.org/1999/xlink">
    <!-- Generator: Sketch 50 (54983) - http://www.bohemiancoding.com/sketch -->
    <title>comment</title>
    <desc>Created with Sketch.</desc>
    <defs></defs>
    <g id="Page-1" stroke="none" stroke-width="1" fill="none" fill-rule="evenodd">
        <path d="M13.9957293,3.95075708 C13.3260103,2.9906608 12.4163205,2.23230308 11.2668947,1.67575229 C10.1174982,1.1192699 8.86176399,0.840960311 7.50013193,0.840960311 C6.48445639,0.840960311 5.51346201,1.0052854 4.58714879,1.33400398 C3.66083557,1.66268836 2.86287808,2.10696458 2.19321769,2.66673005 C1.52344002,3.22656392 0.990637674,3.89214039 0.594370877,4.66342525 C0.19810408,5.43474431 0,6.24357943 0,7.0897938 C0,8.06613449 0.25243098,8.98098579 0.757498168,9.83369792 C1.26256536,10.6863075 1.95304178,11.4024297 2.82924994,11.9817569 C2.76779868,12.2420437 2.69526509,12.4894718 2.61153188,12.7236308 C2.527828,12.9579608 2.45250916,13.1502263 2.38554605,13.2999143 C2.31852431,13.4496023 2.22793061,13.6156715 2.11344246,13.7979168 C1.99913022,13.9801278 1.91264109,14.1087494 1.85403372,14.1835079 C1.79548497,14.2584032 1.69923284,14.3822712 1.56521867,14.5545304 C1.43138041,14.7271657 1.34483264,14.8393719 1.30580992,14.8915592 C1.30015148,14.8946029 1.27786953,14.9241165 1.23881749,14.9793475 C1.19979477,15.0345785 1.18021011,15.0622111 1.18021011,15.0622111 C1.11973613,15.1739271 1.09041779,15.2340371 1.09225507,15.2425412 C1.09506963,15.2552974 1.08949914,15.2880598 1.07554361,15.3400419 C1.06155876,15.3922292 1.1509504,15.6787465 1.22623992,15.750222 C1.30152944,15.8217658 1.75921818,15.977302 1.85403372,15.9640671 C2.21684828,15.9120166 2.80180294,15.8415327 3.07519654,15.750222 C4.44222436,15.2425412 5.18143171,14.3995415 6.28629367,13.2602095 C6.70472514,13.31226 7.10931835,13.3383879 7.49995602,13.3383879 C8.86155876,13.3383879 10.1172343,13.0600783 11.2667481,12.5033565 C12.4162619,11.9468741 13.3258637,11.1884822 13.9954654,10.2285569 C14.6651845,9.26887103 15,8.22235447 15,7.0897596 C15.0000293,5.95713053 14.6652431,4.91068236 13.9957293,3.95075708 Z" id="comment" fill="#000000" fill-rule="nonzero"></path>
    </g>
</svg>