<?xml version="1.0" encoding="UTF-8"?>
<svg width="25px" height="25px" viewBox="0 0 25 25" version="1.1" xmlns="http://www.w3.org/2000/svg" xmlns:xlink="http://www.w3.org/1999/xlink">
    <!-- Generator: Sketch 50 (54983) - http://www.bohemiancoding.com/sketch -->
    <title>due-date-time-circled</title>
    <desc>Created with Sketch.</desc>
    <defs></defs>
    <g id="Page-1" stroke="none" stroke-width="1" fill="none" fill-rule="evenodd">
        <g id="due-date-time-circled">
            <circle id="circle" fill="#11BF96" cx="12.5" cy="12.5" r="12.5"></circle>
            <g id="due-date-time" transform="translate(6.322089, 4.262785)" fill="#FFFFFF" fill-rule="nonzero">
                <path d="M11.3333142,3.2184375 L11.3333142,1.8145625 C11.729907,1.58334375 11.9999688,1.15809375 11.9999688,0.66665625 L11.9999688,0.33334375 C11.9999688,0.14909375 11.8508754,0 11.6666259,0 L0.333342882,0 C0.149093362,0 0,0.14909375 0,0.33334375 L0,0.6666875 C0,1.15809375 0.270061797,1.58334375 0.666654514,1.81459375 L0.666654514,3.2184375 C0.666654514,4.53940625 1.2298093,5.80371875 2.21158799,6.6871875 L3.67024044,8 L2.21158799,9.3128125 C1.2298093,10.1962813 0.666654514,11.4605937 0.666654514,12.7815625 L0.666654514,14.1854062 C0.270061797,14.4166563 0,14.8419062 0,15.3333437 L0,15.6666875 C0,15.8509062 0.149093362,16 0.333342882,16 L11.6666571,16 C11.8509066,16 12,15.8509062 12,15.6666563 L12,15.3333125 C12,14.8419063 11.7299382,14.4166563 11.3333455,14.1854063 L11.3333455,12.7815625 C11.3333455,11.4605937 10.7701907,10.1962813 9.78841201,9.3128125 L8.32972831,8 L9.78838076,6.6871875 C10.7701595,5.80371875 11.3333142,4.539375 11.3333142,3.2184375 Z M8.89647683,5.69628125 L6.88735706,7.5045625 C6.74673243,7.630875 6.66663889,7.810875 6.66663889,8 C6.66663889,8.189125 6.74673243,8.36915625 6.88735706,8.4954375 L8.89647683,10.3037188 C9.59763126,10.9349063 9.99997396,11.8382188 9.99997396,12.7815625 L9.99997396,14 L9.16647613,14 L6.26657743,10.1334688 C6.14092151,9.9655 5.85901599,9.9655 5.73336007,10.1334688 L2.83349262,14 L1.99999479,14 L1.99999479,12.7815625 C1.99999479,11.8381875 2.40233749,10.934875 3.10352317,10.3036875 L5.11264294,8.49540625 C5.25326757,8.36909375 5.33336111,8.18909375 5.33336111,7.99996875 C5.33336111,7.81084375 5.25326757,7.6308125 5.11264294,7.50453125 L3.10352317,5.69625 C2.40233749,5.06509375 1.99999479,4.16178125 1.99999479,3.2184375 L1.99999479,2 L9.99997396,2 L9.99997396,3.2184375 C9.99997396,4.16178125 9.59763126,5.06509375 8.89647683,5.69628125 Z" id="Shape"></path>
            </g>
        </g>
    </g>
</svg>