<?xml version="1.0" encoding="UTF-8"?>
<svg width="25px" height="25px" viewBox="0 0 25 25" version="1.1" xmlns="http://www.w3.org/2000/svg" xmlns:xlink="http://www.w3.org/1999/xlink">
    <!-- Generator: Sketch 50 (54983) - http://www.bohemiancoding.com/sketch -->
    <title>expense-circled</title>
    <desc>Created with Sketch.</desc>
    <defs></defs>
    <g id="Page-1" stroke="none" stroke-width="1" fill="none" fill-rule="evenodd">
        <g id="expense-circled">
            <circle id="Path" fill="#11BF96" cx="12.5" cy="12.5" r="12.5"></circle>
            <path d="M7,20.552 L7,17.8454187 C8.536,17.0774187 9.544,16.616 9.544,14.864 C9.544,14.528 9.496,14.216 9.448,13.88 L6.4080726,13.5794106 L6.49181599,11.0793843 C7.27474336,11.2175137 7.81405166,11.3014141 8.10974088,11.3310855 C8.4054301,11.3607569 8.70222748,11.3607569 9.00013301,11.3310855 C8.73613301,10.4910855 8.44,10.448 8.44,9.656 C8.44,6.776 10.252225,4.51564095 13.084225,4.51564095 C14.836225,4.51564095 16.24,5.313196 17.2,6.465196 L15.64,8.384 C15.04,7.688 14.392,7.256 13.48,7.256 C11.992,7.256 11.104,8.192 11.104,9.8 C11.104,10.592 11.6103175,11.1483025 11.8040363,11.3310855 C11.9331822,11.4529408 13.0678368,11.4529408 15.208,11.3310855 L15.208,13.7427546 L11.92,13.88 C11.968,14.192 11.992,14.528 11.992,14.888 C11.992,16.304 11.584,16.9334187 10.72,17.8454187 L11.104,17.8454187 L17.2,17.8454187 L17.2,20.552 L7,20.552 Z" id="£" fill="#FFFFFF"></path>
        </g>
    </g>
</svg>