<?xml version="1.0" encoding="UTF-8"?>
<svg width="25px" height="25px" viewBox="0 0 25 25" version="1.1" xmlns="http://www.w3.org/2000/svg" xmlns:xlink="http://www.w3.org/1999/xlink">
    <!-- Generator: Sketch 50 (54983) - http://www.bohemiancoding.com/sketch -->
    <title>mileage-circled</title>
    <desc>Created with Sketch.</desc>
    <defs></defs>
    <g id="Page-1" stroke="none" stroke-width="1" fill="none" fill-rule="evenodd">
        <g id="mileage-circled">
            <circle id="Path" fill="#11BF96" cx="12.5" cy="12.5" r="12.5"></circle>
            <path d="M7.1642237,5 L17.9683185,5 C18.3041433,5.24746352 18.591498,5.66099248 18.8303825,6.24058689 C19.0692671,6.8201813 19.619807,8.42751752 20.4820023,11.0625955 L20.4820023,18.7903404 L19.9941503,19.2056732 L18.2645258,19.2056732 L17.826897,18.7903404 L17.826897,17.3984366 L7.30705028,17.3984366 L7.30705028,18.7903404 C7.03829139,19.067229 6.93485573,19.2056732 6.99674329,19.2056732 C7.08957463,19.2056732 5.04113989,19.2056732 5.04113989,19.2056732 C5.04113989,19.2056732 4.8940953,19.067229 4.6000061,18.7903404 L4.6000061,11.0625955 C5.532923,8.32536033 6.05822168,6.80936258 6.17590214,6.5146023 C6.21574759,6.41479938 6.35619577,5.99427919 6.41940178,5.87675029 C6.50171385,5.72369448 6.74998782,5.43144439 7.1642237,5 Z M7.86292111,6.46882415 L6.55429653,10.3099247 L18.5531364,10.3099247 L17.2906777,6.46882415 L7.86292111,6.46882415 Z M7.9060335,14.62586 C8.62733673,14.62586 9.21206853,14.0380412 9.21206853,13.31293 C9.21206853,12.5878188 8.62733673,12 7.9060335,12 C7.18473027,12 6.59999847,12.5878188 6.59999847,13.31293 C6.59999847,14.0380412 7.18473027,14.62586 7.9060335,14.62586 Z M17.2060366,14.62586 C17.9273398,14.62586 18.5120716,14.0380412 18.5120716,13.31293 C18.5120716,12.5878188 17.9273398,12 17.2060366,12 C16.4847333,12 15.9000015,12.5878188 15.9000015,13.31293 C15.9000015,14.0380412 16.4847333,14.62586 17.2060366,14.62586 Z" id="car" fill="#FFFFFF"></path>
        </g>
    </g>
</svg>