<?xml version="1.0" encoding="UTF-8"?>
<svg width="25px" height="25px" viewBox="0 0 25 25" version="1.1" xmlns="http://www.w3.org/2000/svg" xmlns:xlink="http://www.w3.org/1999/xlink">
    <!-- Generator: Sketch 50 (54983) - http://www.bohemiancoding.com/sketch -->
    <title>rename-circled</title>
    <desc>Created with Sketch.</desc>
    <defs></defs>
    <g id="Page-1" stroke="none" stroke-width="1" fill="none" fill-rule="evenodd">
        <g id="rename-circled">
            <circle id="circle" fill="#11BF96" cx="12.5" cy="12.5" r="12.5"></circle>
            <g id="rename" transform="translate(5.370547, 5.278229)" fill="#FFFFFF">
                <path d="M12.0141844,14 C10.3510638,14 9.07269504,12.9004178 9.07269504,10.9936954 C9.07269504,9.07527535 10.5,7.97569313 12.1258865,7.97569313 C12.9078014,7.97569313 13.4663121,8.25643752 13.9131206,8.6190657 L13.2180851,9.49639195 C12.8953901,9.22734523 12.5851064,9.07527535 12.2003546,9.07527535 C11.2198582,9.07527535 10.537234,9.83562476 10.537234,10.9936954 C10.537234,12.1400684 11.2074468,12.9004178 12.1631206,12.9004178 C12.6347518,12.9004178 13.0691489,12.6781618 13.4166667,12.4091151 L14,13.298139 C13.429078,13.7660463 12.7092199,14 12.0141844,14 Z" id="Path"></path>
                <path d="M2.95390071,14 C2.39539007,14 1.79964539,13.7309533 1.29078014,13.2513483 L1.2535461,13.2513483 L1.12943262,13.8596278 L0,13.8596278 L0,5.60106343 L1.42730496,5.60106343 L1.42730496,7.73004178 L1.39007092,8.6892518 C1.89893617,8.26813521 2.53191489,7.97569313 3.15248227,7.97569313 C4.67907801,7.97569313 5.56028369,9.12206608 5.56028369,10.8884163 C5.56028369,12.8653247 4.30673759,14 2.95390071,14 Z M2.65602837,12.8887201 C3.46276596,12.8887201 4.08333333,12.2102545 4.08333333,10.9118116 C4.08333333,9.76543866 3.68617021,9.08697303 2.7677305,9.08697303 C2.32092199,9.08697303 1.89893617,9.29753133 1.42730496,9.73034561 L1.42730496,12.4091151 C1.86170213,12.7600456 2.29609929,12.8887201 2.65602837,12.8887201 Z" id="Combined-Shape"></path>
                <path d="M6.29255319,6.02430687 C5.2251773,6.02430687 4.4929078,5.34584125 4.4929078,4.33984049 C4.4929078,3.11158374 5.57269504,2.46821117 8.07978723,2.21086213 C8.05496454,1.60258261 7.79432624,1.08788454 6.96276596,1.08788454 C6.36702128,1.08788454 5.79609929,1.34523357 5.25,1.64937334 L4.7287234,0.748651728 C5.39893617,0.350930498 6.2677305,0 7.2358156,0 C8.75,0 9.5070922,0.877326244 9.5070922,2.47990885 L9.5070922,5.88393468 L8.32801418,5.88393468 L8.2287234,5.25225978 L8.17907801,5.25225978 C7.63297872,5.68507406 7.01241135,6.02430687 6.29255319,6.02430687 Z M6.75177305,4.97151538 C7.24822695,4.97151538 7.62056738,4.73756172 8.07978723,4.33984049 L8.07978723,3.05309533 C6.41666667,3.25195594 5.87056738,3.66137486 5.87056738,4.23456134 C5.87056738,4.7492594 6.2429078,4.97151538 6.75177305,4.97151538 Z" id="Combined-Shape"></path>
            </g>
        </g>
    </g>
</svg>