<?xml version="1.0" encoding="UTF-8"?>
<svg width="25px" height="25px" viewBox="0 0 25 25" version="1.1" xmlns="http://www.w3.org/2000/svg" xmlns:xlink="http://www.w3.org/1999/xlink">
    <!-- Generator: Sketch 50 (54983) - http://www.bohemiancoding.com/sketch -->
    <title>ticket-opened-circled</title>
    <desc>Created with Sketch.</desc>
    <defs></defs>
    <g id="Page-1" stroke="none" stroke-width="1" fill="none" fill-rule="evenodd">
        <g id="ticket-opened-circled">
            <circle id="Mask" fill="#FF0047" cx="12.5" cy="12.5" r="12.5"></circle>
            <path d="M13.8888889,11.1111111 L18.0555556,11.1111111 C18.8226177,11.1111111 19.4444444,11.7329378 19.4444444,12.5 C19.4444444,13.2670622 18.8226177,13.8888889 18.0555556,13.8888889 L13.8888889,13.8888889 L13.8888889,18.0555556 C13.8888889,18.8226177 13.2670622,19.4444444 12.5,19.4444444 C11.7329378,19.4444444 11.1111111,18.8226177 11.1111111,18.0555556 L11.1111111,13.8888889 L6.94444444,13.8888889 C6.17738229,13.8888889 5.55555556,13.2670622 5.55555556,12.5 C5.55555556,11.7329378 6.17738229,11.1111111 6.94444444,11.1111111 L11.1111111,11.1111111 L11.1111111,6.94444444 C11.1111111,6.17738229 11.7329378,5.55555556 12.5,5.55555556 C13.2670622,5.55555556 13.8888889,6.17738229 13.8888889,6.94444444 L13.8888889,11.1111111 Z" id="Combined-Shape" fill="#FFFFFF"></path>
        </g>
    </g>
</svg>