<?xml version="1.0" encoding="UTF-8"?>
<svg width="25px" height="25px" viewBox="0 0 25 25" version="1.1" xmlns="http://www.w3.org/2000/svg" xmlns:xlink="http://www.w3.org/1999/xlink">
    <!-- Generator: Sketch 50 (54983) - http://www.bohemiancoding.com/sketch -->
    <title>ticket-reopened-circled</title>
    <desc>Created with Sketch.</desc>
    <defs></defs>
    <g id="Page-1" stroke="none" stroke-width="1" fill="none" fill-rule="evenodd">
        <g id="ticket-reopened-circled">
            <circle id="Mask" fill="#DCAE05" cx="12.5" cy="12.5" r="12.5"></circle>
            <path d="M5.44162385,6.54245103 L5.44162385,10.7148044 C5.44162385,11.2670891 5.8893391,11.7148044 6.44162385,11.7148044 L10.7207393,11.7148044 C11.2682816,11.7148044 11.7121523,11.2709336 11.7121523,10.7233914 L11.7121523,10.7233914 C11.7121523,10.1758491 11.2682816,9.73197836 10.7207393,9.73197836 L8.57688807,9.73197836 C9.40671134,8.3686032 10.7436018,7.68691562 12.5875594,7.68691562 C15.3534958,7.68691562 17.5384148,10.1721516 17.5384148,12.5367245 C17.5384148,14.9012975 15.5137177,17.6976807 12.5875594,17.5801589 C11.188869,17.523984 10.1396921,17.2827185 9.44002871,16.8563623 L9.44003675,16.8563491 C9.01005995,16.5943328 8.45115232,16.7042545 8.15242466,17.1095869 L8.15242466,17.1095869 C7.86373262,17.5013024 7.94724962,18.0528817 8.33896511,18.3415738 C8.39066755,18.3796782 8.44638144,18.412015 8.50511353,18.4380079 C9.7188086,18.975159 11.0041536,19.3088841 12.3611446,19.4391919 C12.4612782,19.4343815 13.2939468,19.4487222 13.3969933,19.4391919 C15.9941842,19.198989 18.85223,17.1815213 19.5530485,12.8628898 C19.5704607,12.7555913 19.5383367,12.2808987 19.5530485,12.1707511 C19.0252741,7.08847431 14.9879347,5.909746 12.5875594,5.70312073 C10.1871841,5.49649546 7.93885559,7.27115723 7.41160734,7.96394675 L7.41160734,6.54245103 C7.41160734,5.99845511 6.97061152,5.55745929 6.42661559,5.55745929 L6.42661559,5.55745929 C5.88261967,5.55745929 5.44162385,5.99845511 5.44162385,6.54245103 Z" id="re-open" fill="#FFFFFF" transform="translate(12.500000, 12.500000) scale(1, -1) translate(-12.500000, -12.500000) "></path>
        </g>
    </g>
</svg>