<?xml version="1.0" encoding="UTF-8"?>
<svg width="25px" height="25px" viewBox="0 0 25 25" version="1.1" xmlns="http://www.w3.org/2000/svg" xmlns:xlink="http://www.w3.org/1999/xlink">
    <!-- Generator: Sketch 50 (54983) - http://www.bohemiancoding.com/sketch -->
    <title>ticket-in-progress-circled</title>
    <desc>Created with Sketch.</desc>
    <defs></defs>
    <g id="Page-1" stroke="none" stroke-width="1" fill="none" fill-rule="evenodd">
        <g id="ticket-in-progress-circled">
            <circle id="Mask" fill="#DCAE05" cx="12.5" cy="12.5" r="12.5"></circle>
            <path d="M6.34532982,15.6582038 L11.9191363,15.0892811 L10.2696437,21.466171 C10.2143213,21.6800457 10.3428534,21.8982731 10.5567281,21.9535955 C10.7194625,21.9956895 10.8911525,21.9315524 10.9864315,21.7930738 L18.483817,10.8963734 C18.609038,10.7143772 18.5630126,10.4653283 18.3810164,10.3401073 C18.3054821,10.2881365 18.2143865,10.2636924 18.1229814,10.2708673 L13.0614236,10.6681809 L14.4824721,4.35014191 C14.5309489,4.13461242 14.3955258,3.9205931 14.1799964,3.87211637 C14.0224669,3.83668497 13.8590824,3.89943855 13.7657743,4.03121293 L5.97826533,15.0291173 C5.85060244,15.2094091 5.89326663,15.4590557 6.07355845,15.5867186 C6.15252177,15.6426318 6.24907516,15.6680286 6.34532982,15.6582038 Z" id="in-progress" fill="#FFFFFF"></path>
        </g>
    </g>
</svg>