<?xml version="1.0" encoding="UTF-8"?>
<svg width="25px" height="25px" viewBox="0 0 25 25" version="1.1" xmlns="http://www.w3.org/2000/svg" xmlns:xlink="http://www.w3.org/1999/xlink">
    <!-- Generator: Sketch 50 (54983) - http://www.bohemiancoding.com/sketch -->
    <title>ticket-comment</title>
    <desc>Created with Sketch.</desc>
    <defs></defs>
    <g id="Page-1" stroke="none" stroke-width="1" fill="none" fill-rule="evenodd">
        <g id="ticket-comment">
            <circle id="Oval---3" fill="#FF1870" cx="12.5" cy="12.5" r="12.5"></circle>
            <path d="M18.9957293,8.10979677 C18.3260103,7.14970049 17.4163205,6.39134277 16.2668947,5.83479198 C15.1174982,5.27830959 13.861764,5 12.5001319,5 C11.4844564,5 10.513462,5.16432509 9.58714879,5.49304367 C8.66083557,5.82172805 7.86287808,6.26600427 7.19321769,6.82576974 C6.52344002,7.38560361 5.99063767,8.05118008 5.59437088,8.82246494 C5.19810408,9.593784 5,10.4026191 5,11.2488335 C5,12.2251742 5.25243098,13.1400255 5.75749817,13.9927376 C6.26256536,14.8453472 6.95304178,15.5614694 7.82924994,16.1407966 C7.76779868,16.4010834 7.69526509,16.6485115 7.61153188,16.8826705 C7.527828,17.1170005 7.45250916,17.3092659 7.38554605,17.458954 C7.31852431,17.608642 7.22793061,17.7747112 7.11344246,17.9569565 C6.99913022,18.1391675 6.91264109,18.2677891 6.85403372,18.3425476 C6.79548497,18.4174429 6.69923284,18.5413108 6.56521867,18.71357 C6.43138041,18.8862054 6.34483264,18.9984116 6.30580992,19.0505989 C6.30015148,19.0536426 6.27786953,19.0831562 6.23881749,19.1383872 C6.19979477,19.1936182 6.18021011,19.2212508 6.18021011,19.2212508 C6.11973613,19.3329668 6.09041779,19.3930768 6.09225507,19.4015809 C6.09506963,19.414337 6.08949914,19.4470995 6.07554361,19.4990816 C6.06155876,19.5512689 6.1509504,19.8377862 6.22623992,19.9092616 C6.30152944,19.9808055 6.75921818,20.1363417 6.85403372,20.1231068 C7.21684828,20.0710562 7.80180294,20.0005724 8.07519654,19.9092616 C9.44222436,19.4015809 10.1814317,18.5585812 11.2862937,17.4192492 C11.7047251,17.4712997 12.1093183,17.4974276 12.499956,17.4974276 C13.8615588,17.4974276 15.1172343,17.219118 16.2667481,16.6623962 C17.4162619,16.1059138 18.3258637,15.3475219 18.9954654,14.3875966 C19.6651845,13.4279107 20,12.3813942 20,11.2487993 C20.0000293,10.1161702 19.6652431,9.06972205 18.9957293,8.10979677 Z" id="comment-bubble" fill="#FFFFFF" fill-rule="nonzero"></path>
        </g>
    </g>
</svg>