<?xml version="1.0" encoding="UTF-8"?>
<svg width="25px" height="25px" viewBox="0 0 25 25" version="1.1" xmlns="http://www.w3.org/2000/svg" xmlns:xlink="http://www.w3.org/1999/xlink">
    <!-- Generator: Sketch 50 (54983) - http://www.bohemiancoding.com/sketch -->
    <title>ticket-assigned-circled</title>
    <desc>Created with Sketch.</desc>
    <defs></defs>
    <g id="Page-1" stroke="none" stroke-width="1" fill="none" fill-rule="evenodd">
        <g id="ticket-assigned-circled">
            <circle id="circle" fill="#11BF96" cx="12.5" cy="12.5" r="12.5"></circle>
            <g id="ticket-assigned" transform="translate(2.062572, 6.527433)" fill="#FFFFFF">
                <g id="Group" stroke-width="1" transform="translate(9.333333, 0.000000)">
                    <ellipse id="Oval" cx="5.33333333" cy="2.40287146" rx="2.66666667" ry="2.40287146"></ellipse>
                    <path d="M5.33333333,6.66666667 C3.55386595,6.83276219 2.33666506,7.15848664 1.68173065,7.64384001 C1.02464211,8.13078974 0.493444411,9.03928987 0,9.88244285 L0,12 L10.6666667,12 L10.6666667,9.88244285 C9.96587523,8.57596984 9.33090072,7.7481521 8.76174315,7.39898964 C8.19258557,7.04982717 7.0497823,6.80571952 5.33333333,6.66666667 Z" id="Path-14"></path>
                </g>
                <path d="M5.38404114,5.12970037 L8.03786632,5.12970037 C8.53405778,5.12970037 8.93630044,5.53194303 8.93630044,6.02813449 C8.93630044,6.52432596 8.53405778,6.92656862 8.03786632,6.92656862 L5.38404114,6.92656862 L5.38404114,9.63224031 C5.38404114,10.122705 4.98644098,10.5203051 4.49597632,10.5203051 C4.00551166,10.5203051 3.60791149,10.122705 3.60791149,9.63224031 L3.60791149,6.92656862 L0.954086314,6.92656862 C0.457894846,6.92656862 0.0556521858,6.52432596 0.0556521858,6.02813449 C0.0556521858,5.53194303 0.457894846,5.12970037 0.954086314,5.12970037 L3.60791149,5.12970037 L3.60791149,2.42402868 C3.60791149,1.93356402 4.00551166,1.53596386 4.49597632,1.53596386 C4.98644098,1.53596386 5.38404114,1.93356402 5.38404114,2.42402868 L5.38404114,5.12970037 Z" id="Combined-Shape"></path>
            </g>
        </g>
    </g>
</svg>