<?xml version="1.0" encoding="UTF-8"?>
<svg width="25px" height="25px" viewBox="0 0 25 25" version="1.1" xmlns="http://www.w3.org/2000/svg" xmlns:xlink="http://www.w3.org/1999/xlink">
    <!-- Generator: Sketch 50 (54983) - http://www.bohemiancoding.com/sketch -->
    <title>waste-circled</title>
    <desc>Created with Sketch.</desc>
    <defs></defs>
    <g id="Page-1" stroke="none" stroke-width="1" fill="none" fill-rule="evenodd">
        <g id="waste-circled">
            <circle id="circle" fill="#11BF96" cx="12.5" cy="12.5" r="12.5"></circle>
            <g id="waste" transform="translate(4.976803, 3.499123)" fill="#FFFFFF" fill-rule="nonzero">
                <path d="M14.7365261,14.1579396 L9.9828272,11.9998428 L14.7368609,9.84174611 C15.0013645,9.71831023 15.10884,9.41800166 14.9762534,9.17112989 L14.4971336,8.27645411 C14.3648818,8.02958234 14.0431249,7.92927116 13.7782865,8.05270704 L7.53298815,10.8876699 L1.28768982,8.05270704 C1.02318622,7.92927116 0.701429309,8.02926985 0.568842693,8.27645411 L0.0897228785,9.17112989 C-0.0425289222,9.41800166 0.0646117771,9.71831023 0.329115378,9.84174611 L5.0831491,11.9998428 L0.329450193,14.1579396 C0.0649465917,14.2813755 -0.0425289222,14.581684 0.0900576931,14.8288683 L0.569177508,15.7235441 C0.701429309,15.9704158 1.02318622,16.070727 1.28802464,15.9469787 L7.53298815,13.1120158 L13.7782865,15.9469787 C14.0427901,16.0704145 14.364547,15.9704158 14.4971336,15.7235441 L14.9762534,14.8288683 C15.1085052,14.581684 15.0010297,14.2813755 14.7365261,14.1579396 Z M5.05535948,7.41490289 L4.87188103,8.22332981 C4.78248551,8.61769964 5.05335059,8.99988214 5.42265119,8.99988214 L9.64399474,8.99988214 C10.0132953,8.99988214 10.2841604,8.61769964 10.1947649,8.22332981 L10.0106168,7.41490289 C11.4094726,6.71459956 12.3543196,5.45399107 12.3543196,3.99994762 C12.3543196,1.79091405 10.1957693,0 7.53298815,0 C4.87020696,0 2.71165668,1.79091405 2.71165668,3.99994762 C2.71165668,5.45399107 3.65650372,6.71459956 5.05535948,7.41490289 Z M9.40795039,3.49995416 C9.9988983,3.49995416 10.4793574,3.94838579 10.4793574,4.49994107 C10.4793574,5.05149634 9.9988983,5.49992797 9.40795039,5.49992797 C8.81700247,5.49992797 8.33654339,5.05149634 8.33654339,4.49994107 C8.33654339,3.94838579 8.81700247,3.49995416 9.40795039,3.49995416 Z M5.65802591,3.49995416 C6.24897383,3.49995416 6.7294329,3.94838579 6.7294329,4.49994107 C6.7294329,5.05149634 6.24897383,5.49992797 5.65802591,5.49992797 C5.06707799,5.49992797 4.58661892,5.05149634 4.58661892,4.49994107 C4.58661892,3.94838579 5.06707799,3.49995416 5.65802591,3.49995416 Z"></path>
            </g>
        </g>
    </g>
</svg>